<svg xmlns="http://www.w3.org/2000/svg" viewBox="0 0 32 32" fill="none">
  <!-- Shield background -->
  <path d="M16 2 L28 7 L28 16 C28 24 16 30 16 30 C16 30 4 24 4 16 L4 7 Z" fill="#409eff" stroke="#409eff" stroke-width="1"/>
  <!-- Inner shield highlight -->
  <path d="M16 6 L24 10 L24 16 C24 22 16 27 16 27 C16 27 8 22 8 16 L8 10 Z" fill="none" stroke="rgba(255,255,255,0.3)" stroke-width="0.5"/>
  <!-- Crosshair / target icon in center -->
  <circle cx="16" cy="16" r="6" fill="none" stroke="#fff" stroke-width="1.5"/>
  <circle cx="16" cy="16" r="2.5" fill="#fff"/>
  <!-- Cross lines -->
  <line x1="16" y1="8" x2="16" y2="13" stroke="#fff" stroke-width="1.2"/>
  <line x1="16" y1="19" x2="16" y2="24" stroke="#fff" stroke-width="1.2"/>
  <line x1="8" y1="16" x2="13" y2="16" stroke="#fff" stroke-width="1.2"/>
  <line x1="19" y1="16" x2="24" y2="16" stroke="#fff" stroke-width="1.2"/>
</svg>
